<?xml version="1.0" encoding="utf-8"?>
<!-- Generator: Adobe Illustrator 16.0.0, SVG Export Plug-In . SVG Version: 6.00 Build 0)  -->
<!DOCTYPE svg PUBLIC "-//W3C//DTD SVG 1.1//EN" "http://www.w3.org/Graphics/SVG/1.1/DTD/svg11.dtd">
<svg version="1.1" id="Layer_1" xmlns="http://www.w3.org/2000/svg" xmlns:xlink="http://www.w3.org/1999/xlink" x="0px" y="0px"
	 width="49.932px" height="50px" viewBox="0 0 49.932 50" enable-background="new 0 0 49.932 50" xml:space="preserve">
<path fill="#00AEEF" d="M10.111,32.5c-7.242,2.439-6.078,7.19-9.214,9.573c2.509,0.073,2.922-2.563,4.911-2.546
	C-0.501,44.655,3.156,49.387,0,49.926c7.708,0.896,5.001-6.615,11.098-7.297c-2.78,1.954-4.285,4.68-4.429,7.117
	c6.257-7.117,6.884-1.004,10.775-9.914c-0.79,0.933-2.976,4.268-5.468,4.68c0.648-0.608,2.234-2.313,2.241-3.352
	c-0.814-0.167-4.321-1.596-7.636,2.939c-0.314-1.712,0.628-5.146,3.8-6.992c-0.569-0.254-2.367-0.68-4.357,0.091
	C7.153,34.489,8.623,33.666,10.111,32.5z"/>
<polygon fill="#00AEEF" points="49.932,0 6.958,26.592 23.34,42.974 "/>
</svg>
