<?xml version="1.0" encoding="utf-8"?>
<!-- Generator: Adobe Illustrator 16.0.0, SVG Export Plug-In . SVG Version: 6.00 Build 0)  -->
<!DOCTYPE svg PUBLIC "-//W3C//DTD SVG 1.1//EN" "http://www.w3.org/Graphics/SVG/1.1/DTD/svg11.dtd">
<svg version="1.1" id="Layer_1" xmlns="http://www.w3.org/2000/svg" xmlns:xlink="http://www.w3.org/1999/xlink" x="0px" y="0px"
	 width="32.951px" height="50px" viewBox="0 0 32.951 50" enable-background="new 0 0 32.951 50" xml:space="preserve">
<path fill="#61BC59" d="M32.623,7.188l-9.235-7.019c-0.251-0.191-0.589-0.223-0.872-0.083c-0.283,0.141-0.462,0.429-0.462,0.745
	v3.196c-2.771,0.111-5.462,0.711-8.01,1.79c-2.739,1.158-5.198,2.816-7.309,4.927c-2.111,2.111-3.769,4.569-4.927,7.309
	C0.608,20.89,0,23.901,0,27.004c0,3.103,0.608,6.114,1.809,8.952c1.158,2.738,2.815,5.197,4.927,7.309
	c2.11,2.11,4.569,3.768,7.309,4.927c2.837,1.2,5.849,1.809,8.952,1.809c0.459,0,0.831-0.372,0.831-0.831v-5.542
	c0-0.459-0.372-0.831-0.831-0.831c-8.708,0-15.793-7.084-15.793-15.792c0-8.37,6.589-15.272,14.851-15.764v3.628
	c0,0.315,0.179,0.604,0.462,0.745c0.283,0.14,0.621,0.108,0.872-0.083l9.235-7.019c0.207-0.157,0.328-0.402,0.328-0.662
	S32.83,7.346,32.623,7.188z"/>
</svg>
