<?xml version="1.0" encoding="utf-8"?>
<!-- Generator: Adobe Illustrator 16.0.0, SVG Export Plug-In . SVG Version: 6.00 Build 0)  -->
<!DOCTYPE svg PUBLIC "-//W3C//DTD SVG 1.1//EN" "http://www.w3.org/Graphics/SVG/1.1/DTD/svg11.dtd">
<svg version="1.1" id="Layer_1" xmlns="http://www.w3.org/2000/svg" xmlns:xlink="http://www.w3.org/1999/xlink" x="0px" y="0px"
	 width="32.971px" height="50px" viewBox="0 0 32.971 50" enable-background="new 0 0 32.971 50" xml:space="preserve">
<g>
	<polygon fill="#ED1C24" points="23.953,29.521 23.953,46.14 28.462,50 32.971,50 32.971,44.88 23.953,29.521 	"/>
</g>
<g>
	<polygon fill="#ED1C24" points="9.019,29.521 0,44.88 0,50 4.51,50 9.019,46.14 9.019,29.521 	"/>
</g>
<g>
	<path fill="#ED1C24" d="M21.999,12.455h-1.497c0,5.511,0,31.283,0,32.214c-0.157,0.157-0.578,0.234-1,0.234
		c-0.426,0-0.853-0.079-1.008-0.234c0-0.589,0-27.059,0-32.214h-7.522v35.602h11.027V12.455L21.999,12.455z"/>
</g>
<g>
	<path fill="#ED1C24" d="M16.485,0c-1.313,0-5.513,6.406-5.513,10.501c1.779,0,4.856,0,7.522,0c0-1.024-0.801-5.776-2.009-7.64
		c1.205,1.388,4.017,5.159,4.017,7.64c0.556,0,1.063,0,1.497,0C21.988,6.406,17.798,0,16.485,0L16.485,0z"/>
</g>
</svg>
